<mxfile host="app.diagrams.net" modified="2021-06-08T01:55:02.276Z" agent="5.0 (Windows NT 10.0; Win64; x64) AppleWebKit/537.36 (KHTML, like Gecko) Chrome/91.0.4472.77 Safari/537.36" etag="394-YyNZei3eQL-jyneV" version="14.7.3" type="github">
  <diagram id="4Fr5iqnN_2-OJvL4xTOd" name="Page-1">
    <mxGraphModel dx="1422" dy="762" grid="1" gridSize="10" guides="1" tooltips="1" connect="1" arrows="1" fold="1" page="1" pageScale="1" pageWidth="827" pageHeight="1169" math="0" shadow="0">
      <root>
        <mxCell id="0" />
        <mxCell id="1" parent="0" />
        <mxCell id="cbInVpKfJrHab-muKSBn-4" style="edgeStyle=orthogonalEdgeStyle;rounded=0;orthogonalLoop=1;jettySize=auto;html=1;entryX=0;entryY=0.5;entryDx=0;entryDy=0;" edge="1" parent="1" source="cbInVpKfJrHab-muKSBn-1" target="cbInVpKfJrHab-muKSBn-3">
          <mxGeometry relative="1" as="geometry" />
        </mxCell>
        <mxCell id="cbInVpKfJrHab-muKSBn-5" value="点击编辑，此时会复制一份资料，&lt;br&gt;连同证照列表复制" style="edgeLabel;html=1;align=center;verticalAlign=middle;resizable=0;points=[];" vertex="1" connectable="0" parent="cbInVpKfJrHab-muKSBn-4">
          <mxGeometry x="-0.1" y="-3" relative="1" as="geometry">
            <mxPoint as="offset" />
          </mxGeometry>
        </mxCell>
        <mxCell id="cbInVpKfJrHab-muKSBn-7" style="edgeStyle=orthogonalEdgeStyle;rounded=0;orthogonalLoop=1;jettySize=auto;html=1;entryX=0;entryY=0.5;entryDx=0;entryDy=0;" edge="1" parent="1" source="cbInVpKfJrHab-muKSBn-1" target="cbInVpKfJrHab-muKSBn-6">
          <mxGeometry relative="1" as="geometry" />
        </mxCell>
        <mxCell id="cbInVpKfJrHab-muKSBn-1" value="已核准的客户资料A&lt;br&gt;证照列表a" style="rounded=0;whiteSpace=wrap;html=1;" vertex="1" parent="1">
          <mxGeometry x="120" y="120" width="120" height="60" as="geometry" />
        </mxCell>
        <mxCell id="cbInVpKfJrHab-muKSBn-3" value="原有的A和原有的列表a" style="rounded=0;whiteSpace=wrap;html=1;" vertex="1" parent="1">
          <mxGeometry x="520" y="40" width="120" height="60" as="geometry" />
        </mxCell>
        <mxCell id="cbInVpKfJrHab-muKSBn-8" style="edgeStyle=orthogonalEdgeStyle;rounded=0;orthogonalLoop=1;jettySize=auto;html=1;" edge="1" parent="1" source="cbInVpKfJrHab-muKSBn-6" target="cbInVpKfJrHab-muKSBn-9">
          <mxGeometry relative="1" as="geometry">
            <mxPoint x="580" y="310" as="targetPoint" />
          </mxGeometry>
        </mxCell>
        <mxCell id="cbInVpKfJrHab-muKSBn-6" value="复制的客户资料B和证照列表b" style="rounded=0;whiteSpace=wrap;html=1;" vertex="1" parent="1">
          <mxGeometry x="520" y="160" width="120" height="60" as="geometry" />
        </mxCell>
        <mxCell id="cbInVpKfJrHab-muKSBn-11" style="edgeStyle=orthogonalEdgeStyle;rounded=0;orthogonalLoop=1;jettySize=auto;html=1;entryX=0.5;entryY=0;entryDx=0;entryDy=0;" edge="1" parent="1" source="cbInVpKfJrHab-muKSBn-9" target="cbInVpKfJrHab-muKSBn-10">
          <mxGeometry relative="1" as="geometry">
            <mxPoint x="580" y="390" as="targetPoint" />
          </mxGeometry>
        </mxCell>
        <mxCell id="cbInVpKfJrHab-muKSBn-9" value="之后的证照新增，删除，编辑操作都是针对列表b来做的，不修改列表a" style="rounded=0;whiteSpace=wrap;html=1;" vertex="1" parent="1">
          <mxGeometry x="520" y="280" width="120" height="60" as="geometry" />
        </mxCell>
        <mxCell id="cbInVpKfJrHab-muKSBn-13" style="edgeStyle=orthogonalEdgeStyle;rounded=0;orthogonalLoop=1;jettySize=auto;html=1;" edge="1" parent="1" source="cbInVpKfJrHab-muKSBn-10">
          <mxGeometry relative="1" as="geometry">
            <mxPoint x="580" y="520" as="targetPoint" />
          </mxGeometry>
        </mxCell>
        <mxCell id="cbInVpKfJrHab-muKSBn-10" value="提交审核" style="rounded=0;whiteSpace=wrap;html=1;" vertex="1" parent="1">
          <mxGeometry x="520" y="400" width="120" height="60" as="geometry" />
        </mxCell>
        <mxCell id="cbInVpKfJrHab-muKSBn-15" style="edgeStyle=orthogonalEdgeStyle;rounded=0;orthogonalLoop=1;jettySize=auto;html=1;entryX=1;entryY=0.5;entryDx=0;entryDy=0;" edge="1" parent="1" source="cbInVpKfJrHab-muKSBn-12" target="cbInVpKfJrHab-muKSBn-14">
          <mxGeometry relative="1" as="geometry" />
        </mxCell>
        <mxCell id="cbInVpKfJrHab-muKSBn-12" value="删除证照列表a" style="rounded=0;whiteSpace=wrap;html=1;" vertex="1" parent="1">
          <mxGeometry x="520" y="525" width="120" height="60" as="geometry" />
        </mxCell>
        <mxCell id="cbInVpKfJrHab-muKSBn-17" style="edgeStyle=orthogonalEdgeStyle;rounded=0;orthogonalLoop=1;jettySize=auto;html=1;entryX=0.5;entryY=0;entryDx=0;entryDy=0;" edge="1" parent="1" source="cbInVpKfJrHab-muKSBn-14" target="cbInVpKfJrHab-muKSBn-16">
          <mxGeometry relative="1" as="geometry" />
        </mxCell>
        <mxCell id="cbInVpKfJrHab-muKSBn-14" value="将证照列表b作为新的证照列表a，" style="rounded=0;whiteSpace=wrap;html=1;" vertex="1" parent="1">
          <mxGeometry x="280" y="525" width="120" height="60" as="geometry" />
        </mxCell>
        <mxCell id="cbInVpKfJrHab-muKSBn-16" value="同时把同时把客户资料记录B的所有信息也复制到A上，删除资料B" style="rounded=0;whiteSpace=wrap;html=1;" vertex="1" parent="1">
          <mxGeometry x="280" y="640" width="120" height="60" as="geometry" />
        </mxCell>
        <mxCell id="cbInVpKfJrHab-muKSBn-18" value="证照的存储有分两种类型，一种是release类型就是我上面所说的列表a，一种是transfer，也就是编辑用途的，上面所说的列表b" style="rounded=0;whiteSpace=wrap;html=1;dashed=1;" vertex="1" parent="1">
          <mxGeometry x="690" y="490" width="120" height="110" as="geometry" />
        </mxCell>
      </root>
    </mxGraphModel>
  </diagram>
</mxfile>
